<svg width="800" height="800" viewBox="0 0 512 512" xmlns="http://www.w3.org/2000/svg">
    <rect x="80" y="80" width="352" height="352" rx="48" ry="48" fill="transparent" stroke="currentColor" stroke-width="32" stroke-linejoin="round"/>
    <rect x="144" y="144" width="224" height="224" rx="16" ry="16" fill="transparent" stroke="currentColor" stroke-width="32" stroke-linejoin="round"/>
    <line x1="256" y1="80" x2="256" y2="48" stroke="currentColor" stroke-width="32" stroke-linecap="round" stroke-linejoin="round"/>
    <line x1="336" y1="80" x2="336" y2="48" stroke="currentColor" stroke-width="32" stroke-linecap="round" stroke-linejoin="round"/>
    <line x1="176" y1="80" x2="176" y2="48" stroke="currentColor" stroke-width="32" stroke-linecap="round" stroke-linejoin="round"/>
    <line x1="256" y1="464" x2="256" y2="432" stroke="currentColor" stroke-width="32" stroke-linecap="round" stroke-linejoin="round"/>
    <line x1="336" y1="464" x2="336" y2="432" stroke="currentColor" stroke-width="32" stroke-linecap="round" stroke-linejoin="round"/>
    <line x1="176" y1="464" x2="176" y2="432" stroke="currentColor" stroke-width="32" stroke-linecap="round" stroke-linejoin="round"/>
    <line x1="432" y1="256" x2="464" y2="256" stroke="currentColor" stroke-width="32" stroke-linecap="round" stroke-linejoin="round"/>
    <line x1="432" y1="336" x2="464" y2="336" stroke="currentColor" stroke-width="32" stroke-linecap="round" stroke-linejoin="round"/>
    <line x1="432" y1="176" x2="464" y2="176" stroke="currentColor" stroke-width="32" stroke-linecap="round" stroke-linejoin="round"/>
    <line x1="48" y1="256" x2="80" y2="256" stroke="currentColor" stroke-width="32" stroke-linecap="round" stroke-linejoin="round"/>
    <line x1="48" y1="336" x2="80" y2="336" stroke="currentColor" stroke-width="32" stroke-linecap="round" stroke-linejoin="round"/>
    <line x1="48" y1="176" x2="80" y2="176" stroke="currentColor" stroke-width="32" stroke-linecap="round" stroke-linejoin="round"/>
</svg>