<svg width="50" height="50" viewBox="0 0 50 50" fill="none" xmlns="http://www.w3.org/2000/svg">
<path fill-rule="evenodd" clip-rule="evenodd" d="M24.3861 3.3773C24.7472 3.09644 25.2528 3.09644 25.6139 3.3773L44.3639 17.9606C44.6075 18.1501 44.75 18.4414 44.75 18.75V41.6667C44.75 43.0369 44.2057 44.3511 43.2367 45.32C42.2678 46.289 40.9536 46.8333 39.5833 46.8333H10.4167C9.04638 46.8333 7.73222 46.289 6.76328 45.32C5.79434 44.3511 5.25 43.0369 5.25 41.6667V18.75C5.25 18.4414 5.39247 18.1501 5.63606 17.9606L24.3861 3.3773ZM7.25 19.2391V41.6667C7.25 42.5065 7.58363 43.312 8.1775 43.9058C8.77136 44.4997 9.57681 44.8333 10.4167 44.8333H39.5833C40.4232 44.8333 41.2286 44.4997 41.8225 43.9058C42.4164 43.312 42.75 42.5065 42.75 41.6667V19.2391L25 5.43352L7.25 19.2391Z" fill="white"/>
<path fill-rule="evenodd" clip-rule="evenodd" d="M17.75 25C17.75 24.4477 18.1977 24 18.75 24H31.25C31.8023 24 32.25 24.4477 32.25 25V45.8333C32.25 46.3856 31.8023 46.8333 31.25 46.8333C30.6977 46.8333 30.25 46.3856 30.25 45.8333V26H19.75V45.8333C19.75 46.3856 19.3023 46.8333 18.75 46.8333C18.1977 46.8333 17.75 46.3856 17.75 45.8333V25Z" fill="white"/>
</svg>
